<?xml version="1.0" standalone="no"?>
<!DOCTYPE svg PUBLIC "-//W3C//DTD SVG 20010904//EN"
 "http://www.w3.org/TR/2001/REC-SVG-20010904/DTD/svg10.dtd">
<svg version="1.0" xmlns="http://www.w3.org/2000/svg"
 width="7005.000000pt" height="7005.000000pt" viewBox="0 0 7005.000000 7005.000000"
 preserveAspectRatio="xMidYMid meet">

<g transform="translate(0.000000,7005.000000) scale(0.100000,-0.100000)"
fill="#000000" stroke="none">
<path d="M34315 70044 c-514 -12 -857 -27 -1410 -59 -3063 -180 -6192 -794
-9140 -1795 -1855 -630 -3657 -1415 -5385 -2348 -3428 -1850 -6531 -4269
-9180 -7157 -2852 -3108 -5127 -6731 -6700 -10670 -725 -1814 -1291 -3666
-1705 -5575 -733 -3383 -960 -6851 -675 -10305 266 -3219 977 -6383 2117
-9425 550 -1466 1243 -2986 1991 -4365 1946 -3587 4435 -6732 7492 -9466 2920
-2612 6370 -4767 10030 -6266 2071 -848 4200 -1489 6430 -1937 1631 -327 3485
-557 5080 -630 786 -36 962 -40 1765 -40 803 0 979 4 1765 40 1594 73 3451
303 5080 630 3081 619 5960 1602 8750 2990 4242 2109 7976 5025 11061 8639
2176 2549 3995 5441 5363 8528 1716 3871 2717 8023 2950 12237 39 686 41 805
41 1955 0 1151 -2 1242 -41 1940 -220 3984 -1123 7914 -2664 11591 -724 1727
-1604 3431 -2583 4999 -1836 2940 -4062 5556 -6672 7841 -1946 1703 -4102
3200 -6405 4446 -524 284 -1364 705 -1900 953 -3455 1600 -7113 2621 -10905
3044 -776 87 -1780 160 -2630 192 -256 9 -1667 19 -1920 13z m270 -1683 l0
-95 -100 -31 c-120 -38 -160 -57 -181 -89 -14 -23 -11 -37 51 -253 139 -474
640 -2121 648 -2130 2 -1 178 530 391 1181 338 1028 387 1186 376 1205 -16 30
-112 74 -210 97 l-80 18 0 98 0 98 535 0 535 0 0 -98 0 -97 -77 -17 c-108 -22
-190 -55 -230 -92 -32 -30 -62 -117 -628 -1861 l-593 -1830 -116 -3 c-102 -2
-116 -1 -124 15 -6 10 -245 738 -532 1618 -287 880 -553 1696 -591 1813 l-70
212 -51 35 c-28 18 -96 48 -152 65 -162 51 -146 36 -146 138 0 49 3 92 7 95 3
4 306 6 672 5 l666 -3 0 -94z m-5181 -403 c25 -183 85 -782 79 -788 -12 -10
-184 -42 -191 -36 -3 4 -23 59 -44 124 -70 212 -151 352 -206 352 -30 0 -337
-61 -387 -77 -165 -52 -312 -177 -383 -324 -93 -193 -104 -380 -36 -617 53
-187 135 -313 247 -380 116 -70 244 -101 542 -132 334 -35 477 -66 642 -140
185 -84 349 -248 434 -435 110 -244 132 -658 48 -915 -105 -322 -367 -559
-759 -688 -246 -81 -432 -108 -636 -93 -263 21 -465 80 -584 170 l-24 19 11
102 c6 56 14 104 17 107 3 4 45 -6 93 -20 288 -88 515 -98 783 -36 255 59 428
226 502 485 19 66 23 102 22 224 0 177 -31 326 -93 455 -34 69 -55 96 -136
173 -165 158 -254 189 -678 237 -351 40 -419 56 -587 140 -251 125 -382 298
-454 593 -37 152 -50 277 -43 421 9 196 47 320 145 471 148 230 424 397 807
490 108 26 799 158 836 159 24 1 27 -3 33 -41z m12076 -92 c418 -80 694 -205
908 -410 201 -193 292 -432 263 -691 -14 -121 -444 -2234 -471 -2315 -130
-386 -493 -600 -1019 -600 l-90 0 -12 -57 c-32 -157 -2 -349 83 -523 45 -93
62 -115 147 -201 106 -105 196 -159 324 -194 48 -13 67 -23 66 -34 0 -9 -8
-65 -17 -126 l-17 -110 -45 3 c-94 7 -229 34 -329 68 -391 130 -662 406 -758
772 -21 81 -26 121 -27 247 0 83 2 176 7 208 5 43 4 57 -5 57 -7 0 -69 23
-138 51 -403 162 -654 414 -715 718 -13 62 -16 115 -13 205 5 108 29 238 226
1211 122 600 234 1124 248 1165 107 311 373 512 759 576 54 9 147 12 285 10
170 -3 228 -8 340 -30z m-17576 -2601 c237 -69 414 -218 526 -443 74 -150 98
-351 62 -526 -65 -311 -297 -554 -607 -637 -107 -28 -298 -30 -400 -4 -308 78
-538 306 -615 609 -15 58 -20 112 -20 201 0 188 48 342 154 489 118 164 315
291 501 325 33 6 71 13 85 15 62 11 229 -4 314 -29z m22899 -255 c138 -46 219
-92 286 -161 68 -71 176 -252 213 -359 32 -92 33 -99 33 -260 0 -161 -1 -167
-33 -260 -93 -267 -313 -474 -582 -547 -101 -28 -330 -25 -433 5 -280 81 -498
299 -579 579 -33 113 -33 333 0 446 65 226 222 416 431 522 132 66 225 85 401
81 128 -3 141 -5 263 -46z m-11138 -1960 c198 -5 461 -14 585 -20 5457 -250
10653 -2058 15080 -5249 3079 -2219 5684 -5047 7645 -8301 2359 -3913 3713
-8324 3960 -12900 51 -950 53 -2044 5 -2980 -218 -4237 -1378 -8327 -3408
-12020 -233 -424 -514 -905 -771 -1317 l-82 -133 -4870 0 -4869 0 0 -25 0 -25
4843 0 c2664 0 4846 -3 4850 -6 6 -6 -53 -100 -252 -406 l-115 -175 -4935 -6
c-2714 -3 -4939 -3 -4943 -1 -4 3 -8 717 -8 1588 l0 1583 25 23 c21 19 25 33
25 76 0 29 4 55 9 58 4 3 19 -6 32 -20 76 -82 220 -82 307 0 39 37 45 49 50
94 2 28 2 62 -2 76 -9 37 -61 93 -94 101 -15 3 -39 18 -54 32 -24 23 -33 25
-82 21 -67 -6 -62 8 17 43 35 15 72 22 113 23 95 0 156 -35 294 -170 64 -63
132 -120 153 -129 117 -49 240 26 256 157 l6 53 58 3 c31 2 57 6 57 10 0 10
47 448 55 516 6 44 4 48 -10 36 -8 -7 -17 -11 -18 -9 -48 70 -58 78 -105 81
-41 3 -47 6 -50 26 -2 14 4 29 15 37 16 13 11 14 -47 14 l-65 1 25 -20 c35
-27 18 -54 -38 -58 -31 -2 -47 -10 -66 -32 -13 -16 -26 -35 -28 -42 -4 -10 -8
-10 -21 1 -15 12 -17 11 -17 -9 0 -32 39 -479 46 -517 l5 -33 74 0 c43 0 75
-4 75 -10 0 -5 -7 -10 -15 -10 -8 0 -15 -8 -15 -17 0 -55 -77 -119 -127 -107
-15 4 -82 60 -152 128 -165 159 -241 195 -384 181 l-68 -6 31 54 c76 135 34
247 -91 247 -35 0 -47 -6 -81 -40 -22 -22 -42 -40 -44 -40 -2 0 -4 12 -4 26 0
15 -12 36 -30 53 -30 27 -31 29 -28 117 l3 89 58 3 c31 2 57 5 57 7 0 10 51
486 56 524 5 42 5 44 -12 31 -15 -13 -18 -13 -28 4 -33 55 -47 65 -94 68 -41
3 -47 6 -50 26 -2 14 4 29 15 37 16 13 11 14 -47 14 l-65 1 25 -20 c35 -27 18
-54 -38 -58 -31 -2 -47 -10 -66 -32 -13 -16 -26 -35 -28 -42 -4 -10 -8 -10
-21 1 -22 18 -22 18 3 -267 29 -321 20 -290 88 -294 l57 -3 3 -93 c3 -89 2
-94 -21 -113 -14 -10 -28 -30 -31 -45 l-7 -26 -39 36 c-34 30 -47 36 -85 36
-38 0 -52 -6 -83 -34 -34 -32 -37 -39 -36 -89 0 -42 8 -70 32 -116 18 -34 32
-63 32 -64 0 -2 -25 1 -55 6 -39 7 -74 7 -117 -1 -105 -20 -161 -55 -282 -176
-61 -62 -126 -118 -144 -125 -48 -20 -96 4 -122 61 -10 23 -16 46 -14 50 3 4
30 8 60 8 30 0 54 3 54 8 0 4 13 131 30 281 16 151 27 277 24 280 -3 3 -9 -1
-14 -9 -5 -8 -10 -12 -12 -10 -60 82 -58 80 -103 80 -40 0 -45 3 -51 26 -5 19
-2 29 10 36 31 17 16 28 -39 28 -60 0 -64 -4 -38 -32 25 -28 6 -52 -46 -56
-34 -3 -46 -10 -73 -42 -24 -31 -34 -37 -45 -29 -17 15 -17 22 7 -261 29 -331
20 -300 86 -300 35 0 56 -5 59 -12 2 -7 9 -32 15 -56 21 -82 97 -142 180 -142
68 0 107 25 229 144 162 159 234 192 352 161 63 -16 129 -51 129 -69 0 -6 -5
-5 -12 2 -7 7 -33 12 -58 12 -36 0 -52 -5 -69 -24 -12 -13 -35 -26 -50 -29
-45 -9 -89 -60 -97 -112 -10 -72 3 -114 49 -161 78 -77 210 -81 296 -8 l41 36
0 -47 c0 -47 22 -105 40 -105 7 0 10 -566 10 -1595 l0 -1595 -2190 0 c-1204 0
-2190 2 -2190 5 0 6 374 543 399 573 l19 22 1671 0 1671 0 0 25 0 25 -1644 0
c-1038 0 -1647 4 -1651 10 -3 5 62 107 144 228 1657 2421 3214 5190 4451 7917
3548 7819 5121 16231 4755 25430 -23 574 -45 1026 -53 1072 l-7 42 -150 -121
c-2069 -1671 -4756 -2709 -7630 -2948 -442 -36 -567 -42 -1115 -47 -551 -5
-837 2 -1260 33 -2203 159 -4275 779 -6100 1826 -744 427 -1515 983 -2129
1534 -79 71 -158 142 -177 157 l-33 28 -188 -162 c-2387 -2053 -5107 -3184
-8153 -3389 -643 -43 -1488 -41 -2185 5 -2798 186 -5261 1054 -7393 2606 -155
114 -414 312 -577 442 -38 31 -71 55 -73 53 -1 -2 -9 -134 -17 -292 -78 -1609
-96 -3595 -45 -5154 206 -6309 1295 -12073 3323 -17580 1478 -4015 3525 -7964
5975 -11531 56 -81 98 -150 95 -153 -4 -3 -852 -6 -1885 -6 l-1878 0 0 -25 0
-25 1907 -2 1907 -3 56 -80 c31 -44 122 -174 203 -288 81 -115 147 -213 147
-218 0 -5 -939 -9 -2365 -9 l-2365 0 0 1607 0 1607 22 23 c15 16 23 40 26 78
l4 55 32 -27 c46 -38 88 -53 153 -53 72 0 127 25 171 74 28 33 32 43 32 97 0
33 -7 73 -15 89 -17 33 -61 70 -83 70 -9 0 -29 12 -44 27 -22 21 -39 27 -71
27 -23 0 -51 -4 -61 -9 -43 -19 -2 16 47 42 42 22 66 27 122 28 105 0 164 -32
296 -166 122 -124 152 -142 230 -142 99 0 162 56 182 163 l12 60 52 0 c47 0
53 3 57 23 6 28 56 516 56 541 0 19 -1 19 -13 2 -13 -17 -15 -16 -37 18 -25
41 -59 59 -95 50 -33 -8 -54 30 -31 55 25 27 20 31 -39 31 -53 0 -72 -11 -40
-24 18 -7 20 -37 3 -54 -7 -7 -29 -12 -50 -12 -31 0 -42 -6 -65 -35 -20 -25
-33 -33 -46 -29 -17 5 -18 1 -13 -48 9 -76 46 -480 46 -500 0 -16 11 -18 83
-19 45 -1 74 -3 65 -6 -10 -2 -22 -21 -28 -43 -12 -45 -60 -90 -96 -90 -40 0
-62 16 -184 135 -154 149 -195 170 -341 170 l-106 0 22 35 c31 50 45 96 45
149 0 37 -6 51 -32 78 -29 30 -38 33 -89 33 -53 0 -59 -2 -93 -40 -29 -32 -36
-36 -36 -20 0 10 -14 35 -30 54 -30 34 -31 37 -28 123 l3 88 52 3 c45 3 54 6
57 25 6 29 56 516 56 541 0 19 -1 19 -13 2 -13 -17 -15 -16 -36 17 -24 39 -38
47 -86 47 -44 0 -65 32 -41 59 25 27 20 31 -39 31 -53 0 -72 -11 -40 -24 18
-7 20 -37 3 -54 -7 -7 -29 -12 -50 -12 -31 0 -42 -6 -65 -35 -20 -25 -33 -33
-46 -29 -17 5 -18 1 -13 -48 9 -75 46 -479 46 -500 0 -14 12 -18 63 -20 l62
-3 3 -85 c3 -84 2 -86 -28 -115 -16 -16 -30 -37 -30 -47 0 -26 -12 -22 -45 12
-25 26 -36 30 -84 30 -48 0 -59 -4 -88 -32 -29 -28 -33 -38 -33 -84 0 -55 9
-85 46 -144 l21 -35 -106 0 c-101 0 -110 -2 -176 -34 -54 -26 -91 -56 -164
-130 -51 -53 -107 -106 -124 -118 -55 -41 -120 -25 -152 37 -27 52 -21 60 40
60 49 0 55 2 59 23 7 33 57 519 55 542 0 11 -3 14 -6 8 -8 -22 -28 -14 -46 17
-22 37 -51 53 -84 47 -23 -4 -53 14 -53 33 0 5 7 15 15 24 23 23 19 26 -40 26
-53 0 -72 -11 -40 -24 18 -6 20 -37 4 -53 -6 -6 -26 -9 -44 -6 -28 4 -36 0
-67 -36 -25 -29 -40 -40 -52 -35 -15 6 -16 1 -11 -42 7 -59 45 -490 45 -510 0
-10 15 -14 60 -14 65 0 64 1 75 -63 6 -38 51 -99 89 -119 39 -21 90 -27 139
-16 43 9 63 24 176 132 174 168 247 199 375 162 95 -28 169 -114 169 -198 0
-75 -75 -158 -142 -158 -88 0 -149 86 -105 149 l16 23 27 -25 c35 -33 73 -40
115 -23 41 17 56 42 56 90 0 79 -95 124 -155 73 -17 -13 -51 -33 -77 -45 -60
-26 -78 -60 -78 -146 0 -59 3 -69 32 -102 18 -21 51 -45 73 -55 78 -36 199
-16 249 40 29 32 36 26 36 -33 0 -44 5 -60 25 -84 l25 -30 -2 -1598 -3 -1599
-987 0 c-544 0 -2744 1 -4890 3 l-3903 2 -55 83 c-182 275 -318 492 -314 499
3 4 2154 8 4780 8 l4774 0 0 25 0 25 -4802 2 -4803 3 -77 125 c-941 1509
-1753 3144 -2386 4805 -1419 3717 -2025 7720 -1776 11735 391 6325 2900 12287
7158 17010 579 642 1394 1457 2036 2036 3354 3024 7354 5183 11698 6314 2507
652 5188 960 7767 890z m-478 -9321 c24 -10 135 -85 246 -167 1386 -1019 2671
-1704 4026 -2146 731 -239 1952 -517 2831 -645 742 -108 1706 -172 2590 -172
716 0 1098 25 1770 117 2166 295 3439 696 5499 1731 233 117 426 211 429 209
13 -13 48 -543 62 -941 27 -736 8 -1461 -80 -3045 -49 -892 -67 -1267 -80
-1725 -6 -197 -12 -361 -14 -363 -5 -4 -204 129 -843 561 -1156 783 -1602
1055 -2283 1395 -944 472 -1912 813 -2970 1046 -413 90 -673 135 -1352 230
-1168 164 -1512 193 -2218 183 -1163 -17 -2158 -127 -3145 -348 -1119 -250
-2069 -623 -3969 -1558 -237 -116 -459 -221 -495 -232 -94 -29 -209 -27 -299
4 -38 13 -170 83 -293 154 -1009 588 -2083 1054 -3159 1372 -1874 553 -3901
726 -5870 500 -2456 -281 -4663 -1082 -6605 -2397 -356 -241 -578 -407 -1080
-810 -110 -88 -203 -157 -206 -154 -4 4 -12 183 -18 397 -7 215 -50 1596 -96
3070 -46 1474 -81 2683 -77 2686 4 4 232 -99 507 -228 981 -459 1451 -668
1910 -846 1100 -427 2136 -695 3175 -822 216 -26 880 -87 1410 -129 761 -61
1376 -83 1861 -67 2229 74 4344 626 6154 1606 557 301 1065 614 2010 1235 215
141 411 269 436 284 81 47 152 51 236 15z m-7327 -4699 c1773 -76 3450 -477
5055 -1210 359 -164 889 -438 1235 -640 143 -83 278 -248 316 -385 15 -55 16
-347 21 -3423 6 -3458 5 -3511 -31 -3556 -8 -10 -532 -127 -568 -126 -11 0
-17 65 -38 415 -49 798 -80 999 -304 1950 -124 528 -176 759 -176 786 0 9 14
61 31 115 35 115 34 154 -7 280 -38 117 -164 357 -180 342 -2 -2 -15 -67 -29
-144 -93 -508 -269 -990 -500 -1369 -296 -487 -648 -839 -1175 -1176 -382
-244 -627 -328 -920 -316 -147 6 -340 43 -340 65 0 4 80 47 178 96 546 271
868 491 1193 815 168 167 268 287 402 483 346 506 558 995 666 1543 17 83 33
179 36 215 6 62 6 64 -10 40 -34 -53 -280 -461 -686 -1137 -232 -387 -425
-703 -429 -703 -18 0 -123 299 -140 398 -28 170 35 272 290 469 58 44 148 125
200 180 86 90 307 380 344 451 8 16 22 34 30 41 50 42 -37 46 -194 10 -138
-32 -253 -94 -357 -193 -103 -98 -169 -186 -300 -403 -133 -220 -202 -318
-275 -392 -63 -64 -182 -151 -206 -151 -7 0 4 27 28 64 22 35 88 162 145 283
139 290 161 331 240 446 135 198 243 284 471 379 258 107 420 214 590 390 280
291 428 665 494 1243 43 383 43 768 1 1017 -42 240 -65 279 -401 667 -57 67
-108 121 -112 121 -15 0 -187 -152 -264 -233 -182 -192 -291 -350 -410 -592
-45 -93 -99 -217 -119 -275 -161 -465 -192 -956 -93 -1430 30 -142 30 -333 -1
-477 -43 -206 -104 -356 -245 -606 -40 -73 -92 -166 -114 -207 -49 -93 -240
-412 -422 -705 -290 -465 -762 -1211 -780 -1230 -26 -28 -129 -89 -137 -81 -8
8 -6 25 152 1151 349 2479 432 3168 490 4065 39 620 45 904 19 991 -55 183
-190 302 -409 360 -108 28 -250 31 -325 5 -174 -59 -323 -176 -403 -316 -87
-153 -77 -302 34 -496 50 -86 167 -217 236 -264 67 -44 124 -40 258 22 55 25
138 63 185 84 47 21 86 39 88 40 5 2 -28 158 -35 165 -5 4 -107 16 -228 26
l-219 18 -12 40 c-7 22 -13 67 -13 101 -2 134 80 204 250 212 120 6 171 -9
230 -68 66 -66 85 -140 75 -293 -4 -61 -9 -150 -12 -197 -11 -206 -73 -855
-124 -1305 -104 -901 -388 -2918 -530 -3760 -113 -667 -140 -857 -190 -1335
-64 -606 -101 -844 -180 -1161 -60 -237 -73 -331 -73 -519 0 -238 40 -438 132
-665 23 -54 41 -104 41 -110 0 -37 297 -526 344 -564 13 -11 16 -9 21 11 3 12
140 565 304 1228 165 663 311 1256 326 1317 l27 113 36 9 c178 47 745 181 749
177 3 -2 -295 -701 -662 -1553 -367 -851 -676 -1568 -687 -1592 l-19 -44 93 6
c310 21 642 138 859 301 110 83 259 240 331 347 136 204 559 1044 1058 2099
95 201 271 573 391 827 177 375 318 700 419 968 10 28 12 28 22 11 14 -25 3
-175 -27 -351 -117 -689 -558 -1895 -928 -2535 -207 -358 -458 -710 -761
-1066 -146 -171 -594 -619 -781 -780 -289 -249 -551 -453 -564 -438 -7 8 -520
1141 -626 1382 -20 45 -44 97 -55 115 -36 62 -181 400 -195 455 -13 47 -15
175 -15 748 0 876 -4 964 -92 2014 l-51 614 44 35 c95 75 256 247 297 317 174
299 118 588 -167 856 -90 84 -216 174 -342 242 l-87 47 -7 267 c-4 147 -5 815
-1 1486 8 1335 6 1278 69 1385 18 30 70 95 117 145 101 109 147 176 205 299
128 274 161 565 85 742 -39 91 -191 240 -316 311 -136 76 -134 76 -584 85
-621 13 -4175 12 -4255 -1 -186 -30 -294 -102 -361 -243 -55 -117 -65 -194
-67 -507 -2 -234 1 -285 16 -344 46 -182 144 -302 312 -383 149 -72 138 -20
147 -683 4 -300 7 -1006 5 -1570 l-2 -1024 -40 -9 c-115 -23 -178 -43 -255
-79 -71 -34 -100 -56 -176 -132 -75 -75 -99 -106 -132 -176 -62 -128 -83 -215
-89 -360 -9 -215 39 -348 180 -496 111 -118 245 -203 460 -293 l29 -11 -23
-38 c-222 -366 -329 -662 -389 -1072 -36 -245 -43 -441 -38 -1032 5 -613 -2
-919 -26 -1043 -15 -78 -162 -552 -176 -568 -4 -4 -33 -2 -66 5 l-59 13 -27
300 c-15 165 -52 588 -83 940 -30 352 -60 681 -66 730 -22 186 -23 223 -5 268
20 53 55 87 123 121 59 30 68 48 78 161 7 84 -9 242 -30 293 -9 19 -55 76
-103 126 -198 205 -256 383 -268 824 -4 127 -23 381 -50 657 -81 835 -119
1312 -281 3578 l-6 87 -50 15 c-59 18 -51 26 -128 -120 l-54 -100 2 -95 c3
-126 48 -768 139 -1995 42 -555 78 -1102 81 -1215 6 -200 -2 -400 -15 -400 -9
0 -116 189 -262 465 -267 502 -341 613 -570 850 -257 267 -369 447 -434 698
-47 179 -57 417 -27 622 32 222 41 322 41 461 0 330 -56 602 -161 781 -45 76
-214 245 -314 315 -87 60 -203 130 -333 201 l-83 46 -87 -73 c-465 -388 -630
-884 -478 -1437 14 -52 35 -118 46 -147 24 -64 147 -336 188 -418 69 -136 96
-282 69 -375 -28 -94 -90 -173 -321 -408 -252 -258 -316 -341 -417 -546 -143
-289 -215 -600 -248 -1070 -29 -415 -35 -733 -33 -1872 l2 -1172 -86 -3 c-79
-3 -87 -1 -95 17 -8 22 -323 1862 -500 2923 -210 1264 -300 1876 -399 2712
-46 389 -40 481 42 650 47 97 86 139 388 408 1297 1158 2700 1982 4240 2490
536 177 888 266 1680 427 1073 217 1822 320 2615 358 159 8 806 6 1015 -3z
m15570 0 c877 -31 1691 -130 2486 -305 1633 -359 3146 -1003 4584 -1953 625
-412 828 -574 1457 -1160 253 -235 297 -286 334 -381 46 -122 49 -86 -96
-1076 -274 -1861 -398 -2656 -546 -3510 -203 -1166 -309 -1664 -714 -3335 -86
-355 -181 -751 -211 -880 -31 -129 -59 -238 -63 -243 -4 -4 -2538 -6 -5631 -5
l-5623 3 -8 25 c-4 14 -19 81 -34 150 -86 410 -221 801 -405 1175 -218 445
-437 753 -784 1101 -340 341 -656 566 -1091 779 -455 223 -895 360 -1453 454
-96 16 -175 31 -178 33 -2 2 -4 1516 -4 3364 -1 3344 -1 3359 19 3438 37 140
118 251 253 343 40 27 152 95 248 150 1375 788 2788 1319 4238 1592 991 187
2189 277 3222 241z m-14962 -1273 c252 -57 335 -184 319 -492 -9 -158 -41
-375 -55 -375 -4 0 -128 133 -277 295 -148 161 -272 294 -275 294 -3 0 -28
-48 -57 -107 -68 -141 -139 -233 -230 -298 -101 -73 -171 -95 -313 -101 -140
-6 -234 11 -336 62 -164 80 -272 270 -315 554 -7 44 -15 81 -19 81 -3 0 -12
-21 -18 -47 -7 -27 -34 -100 -59 -163 -105 -264 -229 -415 -388 -471 -67 -23
-193 -25 -283 -4 -133 32 -242 102 -477 310 -80 72 -152 131 -158 133 -7 1
-22 -24 -35 -57 -32 -84 -133 -231 -194 -285 -28 -25 -81 -60 -117 -78 -59
-29 -77 -33 -167 -36 -221 -9 -341 54 -633 332 -79 75 -149 135 -155 133 -6
-2 -109 -124 -228 -270 -181 -223 -219 -264 -226 -250 -16 29 -69 252 -82 342
-19 124 -9 254 23 317 56 111 167 169 368 193 40 5 1028 8 2194 7 1935 -2
2126 -4 2193 -19z m4072 -1118 c8 -11 94 -2008 88 -2014 -3 -3 -233 70 -512
162 -467 154 -506 169 -506 189 0 36 76 361 119 512 134 467 327 834 583 1104
l63 67 80 -6 c44 -3 82 -10 85 -14z m-4252 -1853 c2 -1505 0 -1678 -13 -1672
-9 3 -89 61 -178 128 -189 142 -278 229 -563 548 -115 129 -254 280 -309 336
-93 94 -105 102 -169 122 -38 12 -71 20 -73 18 -2 -2 170 -198 382 -437 212
-239 385 -437 385 -440 0 -3 -44 -27 -97 -52 -259 -124 -432 -114 -614 36 -22
17 -100 105 -175 194 -151 182 -219 247 -305 293 l-59 31 75 85 c213 239 309
476 337 831 10 131 9 189 -7 420 -10 147 -20 350 -23 450 l-4 182 -91 30
c-257 84 -505 161 -518 161 -8 0 -49 -43 -92 -95 l-78 -95 -42 24 c-120 69
-280 156 -287 156 -38 0 -96 -568 -106 -1040 -6 -233 -5 -237 29 -438 18 -112
31 -205 27 -207 -3 -2 -39 1 -80 6 -209 27 -461 -43 -682 -191 -126 -85 -278
-222 -525 -473 -128 -130 -234 -237 -238 -237 -3 0 -5 677 -5 1505 l0 1505
2048 -2 2047 -3 3 -1679z m-8043 1142 c56 -236 295 -1294 295 -1306 0 -14 -39
-25 -238 -63 -130 -25 -241 -43 -245 -39 -9 8 -76 280 -109 442 -32 160 -32
416 0 533 39 141 105 261 214 391 57 68 75 77 83 42z m486 -192 c112 -166 179
-331 215 -531 19 -110 25 -389 11 -509 l-9 -68 -66 4 c-153 9 -246 106 -304
313 -20 74 -22 102 -22 365 0 268 10 417 40 565 l7 29 34 -39 c18 -22 61 -80
94 -129z m5599 -106 c190 -11 351 -20 358 -20 9 0 12 -43 12 -180 0 -99 -3
-180 -7 -180 -5 0 -80 -9 -167 -20 -180 -23 -379 -26 -439 -8 -56 17 -103 67
-122 130 -8 29 -18 108 -22 176 l-6 122 24 0 c13 0 179 -9 369 -20z m285 -819
c14 -24 26 -127 26 -231 0 -247 -94 -388 -288 -429 -108 -22 -139 11 -368 389
-65 107 -129 211 -141 230 -13 19 -24 38 -24 42 0 11 788 10 795 -1z m-1009
-642 c82 -15 168 -63 240 -135 57 -57 144 -172 144 -191 0 -5 -33 -32 -72 -59
-40 -28 -154 -113 -253 -190 -447 -345 -662 -444 -970 -447 -110 -1 -269 17
-295 33 -15 10 -1 30 174 243 381 467 673 708 901 746 70 12 65 12 131 0z
m874 -566 c500 -801 633 -1028 651 -1113 19 -87 -1 -151 -66 -216 -68 -68
-124 -85 -390 -118 -280 -35 -416 -46 -598 -46 -143 0 -166 2 -234 25 -86 29
-193 90 -254 144 l-42 37 2 79 c1 65 -6 111 -40 245 -33 129 -42 184 -43 255
-2 142 15 170 238 389 100 100 272 279 381 399 109 119 201 217 204 217 3 -1
89 -134 191 -297z m-6060 -164 c178 -215 326 -387 330 -382 5 4 74 132 155
283 81 151 153 281 160 289 12 12 42 -14 204 -174 105 -104 191 -192 191 -197
0 -4 -19 -8 -42 -8 -56 0 -105 -31 -125 -78 -18 -42 -15 -89 17 -327 11 -82
23 -217 26 -300 7 -149 -2 -345 -15 -345 -3 0 -49 72 -101 160 -63 105 -101
160 -112 160 -26 0 -941 -219 -949 -228 -4 -4 11 -236 32 -517 48 -636 47
-598 8 -626 l-32 -22 -43 49 c-85 95 -165 196 -183 232 -35 68 -211 679 -296
1027 -79 325 -117 517 -110 560 8 51 50 125 135 240 36 50 86 119 110 155 98
147 305 440 311 440 4 0 152 -176 329 -391z m1625 -1331 c401 -796 553 -1090
592 -1140 80 -103 101 -141 119 -213 20 -80 17 -84 -71 -85 -78 -1 -122 -18
-191 -71 -30 -24 -61 -48 -69 -53 -24 -18 -348 294 -461 444 -86 114 -168 280
-201 405 -23 92 -26 124 -33 410 -10 392 -17 433 -156 1015 -91 384 -86 360
-77 360 5 0 251 -483 548 -1072z m2825 846 c0 -3 -99 -114 -220 -247 l-219
-241 33 -40 c18 -23 133 -169 256 -326 122 -157 229 -292 237 -301 12 -15 7
-26 -45 -95 -63 -84 -131 -140 -187 -155 -80 -22 -168 36 -257 170 -32 48
-115 140 -228 251 -197 195 -222 233 -260 391 -22 93 -27 240 -9 302 22 79
100 136 273 196 127 45 201 60 397 80 199 21 229 23 229 15z m3010 -16 c0 -13
-9 -99 -20 -193 -34 -287 -24 -418 39 -543 31 -62 100 -158 230 -317 44 -55
81 -106 81 -113 0 -11 -131 -204 -161 -236 -14 -16 -148 -34 -158 -22 -12 15
-621 1422 -621 1435 0 8 92 11 305 11 l305 0 0 -22z m845 -27 c82 -41 161
-115 195 -186 22 -43 25 -64 25 -155 0 -93 -3 -111 -26 -160 -35 -74 -69 -122
-180 -257 l-94 -113 -50 5 c-87 10 -218 46 -290 80 -97 47 -148 93 -187 173
-32 65 -33 70 -33 197 0 77 5 147 13 172 20 68 91 164 152 206 86 60 154 77
290 74 109 -2 119 -4 185 -36z m-9401 -877 c180 -841 423 -1438 787 -1934 26
-36 50 -77 54 -92 4 -17 35 -47 93 -91 342 -255 585 -616 750 -1113 57 -172
126 -436 207 -799 73 -326 93 -403 175 -690 73 -257 300 -1078 300 -1088 0 -8
-147 -54 -218 -68 -86 -16 -250 -7 -332 20 -129 41 -264 140 -379 276 -131
157 -469 683 -659 1027 -408 738 -644 1430 -727 2138 -13 119 -42 640 -75
1395 -13 293 -25 1192 -16 1184 4 -3 22 -78 40 -165z m8081 -202 c-3 -7 -142
-208 -310 -447 -168 -238 -308 -441 -311 -450 -8 -19 32 -65 56 -65 9 0 57 48
106 108 261 314 473 488 638 522 106 22 183 -1 316 -95 123 -87 226 -212 417
-509 130 -202 147 -243 147 -361 0 -163 -36 -221 -341 -541 -388 -408 -782
-830 -1040 -1115 -13 -14 -45 -76 -73 -139 -58 -132 -81 -168 -124 -197 -34
-22 -154 -68 -160 -62 -3 2 -16 139 -30 304 -45 513 -62 621 -176 1095 -38
157 -85 368 -105 470 -60 310 -137 468 -315 654 -122 127 -222 198 -375 263
-77 33 -215 76 -215 67 0 -2 138 -212 307 -465 l308 -461 -44 -39 c-24 -22
-47 -39 -51 -39 -4 0 -200 140 -434 310 l-428 310 -29 -21 c-17 -12 -29 -25
-27 -29 2 -4 197 -214 433 -466 237 -252 438 -469 449 -482 17 -22 17 -24 1
-42 -10 -11 -23 -20 -29 -20 -6 0 -236 202 -511 449 -275 248 -501 448 -503
446 -6 -6 77 -144 169 -280 114 -168 262 -352 535 -666 454 -522 581 -684 755
-962 69 -111 199 -356 199 -376 0 -8 -189 -11 -633 -11 -681 0 -707 2 -781 53
-34 23 -471 563 -681 842 -126 168 -320 451 -374 546 -90 160 -96 427 -15 676
57 176 175 373 298 497 43 43 138 117 238 186 92 63 214 147 270 185 57 39
226 164 377 278 l273 207 788 0 788 0 7 43 c14 91 8 92 131 -38 63 -66 112
-126 109 -133z m3663 -51 c-4 -81 -8 -98 -47 -177 -91 -183 -305 -349 -591
-459 -100 -39 -274 -88 -296 -83 -9 2 176 171 453 414 257 226 472 408 477
403 5 -4 7 -48 4 -98z m-6907 -379 c-23 -67 -81 -213 -130 -325 -167 -383
-210 -521 -218 -709 -7 -149 6 -235 64 -402 87 -255 172 -452 502 -1164 72
-156 131 -285 131 -288 0 -2 -168 -4 -373 -4 l-374 0 1 353 c1 193 -3 568 -8
832 -9 510 -4 636 35 879 54 329 164 622 331 878 88 136 97 125 39 -50z m9327
-562 l37 0 -3 -327 c-3 -443 -20 -601 -79 -753 -64 -164 -216 -332 -430 -477
-139 -95 -453 -277 -461 -268 -3 3 8 34 25 68 16 34 209 440 428 902 219 462
403 846 408 853 6 7 17 10 24 7 8 -3 31 -5 51 -5z m-11947 -139 c96 -36 195
-116 422 -340 249 -245 345 -364 435 -540 132 -254 185 -482 237 -1017 25
-261 58 -515 75 -589 13 -55 -4 -121 -48 -194 -74 -120 -378 -429 -568 -577
-98 -77 -185 -137 -190 -132 -7 7 92 252 134 333 25 46 58 89 102 130 163 151
230 236 269 339 44 118 36 226 -25 351 -46 92 -81 136 -94 115 -72 -119 -368
-564 -375 -564 -14 -1 -112 198 -169 342 -66 167 -103 282 -221 674 -122 407
-181 570 -276 768 -124 256 -284 469 -470 625 -52 43 -95 83 -97 89 -2 10 223
97 395 153 206 66 351 77 464 34z m7169 -1337 l0 -844 -766 0 c-446 0 -764 4
-762 9 7 20 1514 1688 1521 1684 4 -2 7 -384 7 -849z m-9025 -1699 c296 -786
540 -1440 543 -1452 l4 -23 -340 0 -341 0 -95 288 c-176 535 -268 886 -331
1258 -52 316 -73 647 -56 904 16 233 54 482 71 463 4 -4 250 -651 545 -1438z
m15945 1285 c85 -17 245 -58 355 -89 302 -87 685 -205 685 -211 0 -3 -60 -32
-132 -65 -1055 -468 -1859 -1095 -2497 -1947 -41 -54 -78 -98 -83 -98 -5 0
-174 98 -374 218 -263 156 -363 221 -360 233 3 15 575 752 1070 1379 132 167
268 331 303 365 124 120 322 218 493 244 36 5 137 8 225 7 133 -3 187 -9 315
-36z m-1560 -187 c-1 -17 -1123 -1618 -1134 -1617 -21 2 -506 315 -506 327 0
16 166 243 254 346 321 380 747 685 1266 905 112 48 120 50 120 39z m3103
-465 c95 -44 143 -86 277 -238 70 -80 238 -261 374 -404 136 -142 243 -263
239 -267 -15 -15 -1806 -1026 -2371 -1338 -161 -89 -312 -169 -335 -178 -26
-9 -77 -16 -134 -16 -89 -1 -94 1 -188 46 -161 78 -755 431 -762 453 -4 11
137 189 296 374 143 166 437 462 591 594 260 223 594 461 862 615 298 171 663
333 863 385 11 2 67 4 125 3 90 -2 113 -6 163 -29z m-12322 -103 c655 -36
1438 -43 2514 -25 308 5 711 10 895 12 372 3 400 -1 492 -62 75 -50 113 -120
210 -385 100 -272 207 -551 437 -1135 88 -222 157 -408 155 -412 -6 -9 -7124
-11 -7124 -2 0 12 44 79 222 341 265 389 357 546 452 776 213 516 521 784
1000 872 199 37 360 41 747 20z m8415 -1654 c1610 -961 1697 -1015 1726 -1058
49 -75 49 -81 55 -592 l6 -484 -89 7 c-693 55 -1408 267 -2109 624 -314 160
-699 450 -831 625 -54 72 -95 151 -115 222 -22 79 -18 260 10 385 31 142 104
381 150 493 39 94 172 387 176 387 2 0 461 -274 1021 -609z m-2080 562 c-4
-14 -25 -108 -46 -209 -62 -291 -115 -484 -151 -557 -40 -78 -193 -149 -360
-167 -97 -10 -417 -1 -422 12 -3 10 961 948 975 948 6 0 8 -11 4 -27z m7056
-140 c104 -224 169 -445 209 -706 19 -119 22 -186 23 -412 0 -269 -6 -360 -45
-655 -24 -181 -26 -192 -40 -168 -14 26 -671 1721 -673 1737 -1 14 439 299
465 300 11 1 31 -30 61 -96z m-817 -528 c297 -495 498 -1062 685 -1939 46
-216 50 -243 40 -290 -21 -102 -78 -193 -284 -451 -196 -246 -598 -726 -603
-721 -7 6 -17 152 -43 591 -59 1009 -87 1160 -434 2305 -71 234 -84 287 -73
297 7 7 150 87 318 177 232 125 307 162 316 153 6 -7 41 -61 78 -122z m-998
-589 c234 -582 368 -1058 436 -1550 19 -140 22 -206 22 -506 0 -632 -54 -920
-200 -1066 -70 -70 -166 -114 -371 -169 -93 -26 -248 -68 -344 -95 -252 -70
-594 -150 -603 -141 -14 13 -2 2713 12 2806 43 289 133 422 397 586 87 55 566
299 578 296 5 -2 38 -74 73 -161z m-8049 -8173 l-3 -7538 -580 -2 c-319 -2
-585 1 -591 5 -44 30 -803 1154 -1136 1682 -244 388 -316 510 -359 616 -48
117 -84 252 -99 366 -12 90 -29 12361 -17 12392 6 15 122 16 1397 16 l1390 0
-2 -7537z m16274 5545 c4 -3629 -4 -9779 -12 -10043 -9 -281 -21 -361 -79
-535 -59 -175 -98 -240 -540 -885 -412 -604 -1083 -1567 -1114 -1603 l-21 -22
-550 2 -551 3 -3 7525 c-1 4139 0 7531 3 7538 3 9 300 12 1435 12 l1430 0 2
-1992z m-21664 -1956 c2 -3138 0 -3923 -10 -3920 -18 6 -609 1187 -798 1593
-722 1553 -1322 3069 -1890 4775 -212 636 -471 1465 -462 1475 3 3 715 4 1581
3 l1576 -3 3 -3923z m27342 3912 c0 -18 -86 -305 -207 -689 -725 -2309 -1553
-4382 -2517 -6303 -226 -450 -371 -725 -385 -730 -8 -3 -11 1009 -11 3867 l0
3871 1560 0 c1413 0 1560 -1 1560 -16z m-18233 -108 c834 -522 1667 -839 2498
-950 99 -14 221 -27 270 -31 50 -3 105 -8 123 -11 l32 -5 0 -466 0 -465 -22 5
c-13 3 -225 44 -473 92 -1250 239 -1875 380 -1970 445 -87 60 -161 180 -301
485 -103 226 -166 387 -218 561 -39 131 -106 402 -106 429 0 16 2 16 23 3 12
-8 77 -50 144 -92z m-902 -758 c418 -822 631 -1198 815 -1443 334 -442 804
-792 1405 -1044 83 -35 175 -79 206 -97 118 -71 175 -166 187 -310 4 -49 5
-2607 2 -5684 l-5 -5595 -1420 0 -1420 0 -3 7303 c-1 4016 1 7302 6 7302 4 0
106 -194 227 -432z m8013 -7175 l-3 -6998 -1400 0 -1400 0 -8 5060 c-4 2783
-6 5308 -4 5610 3 536 3 552 25 616 51 154 137 226 401 339 512 218 921 487
1303 859 410 397 765 889 1029 1424 24 48 47 87 51 87 5 0 7 -3149 6 -6997z
m-5044 5812 c456 -52 831 -97 833 -99 7 -6 -47 -560 -55 -567 -6 -6 -1669 626
-1702 646 -13 8 -8 37 15 91 12 30 17 32 47 28 18 -3 406 -47 862 -99z
m-12525 -8712 c0 -21 -8 -105 -17 -188 l-17 -150 -104 -3 c-57 -1 -108 1 -112
5 -6 6 -39 315 -39 363 0 6 60 10 145 10 l145 0 -1 -37z m26835 -2 c7 -11 -30
-356 -39 -371 -8 -13 -202 -13 -210 0 -8 12 -34 273 -35 338 l0 42 139 0 c77
0 142 -4 145 -9z m-25775 -663 c0 -18 -8 -103 -17 -188 l-17 -155 -108 -3
c-80 -2 -108 1 -112 10 -4 12 -35 328 -35 357 0 8 44 11 145 11 l145 0 -1 -32z
m-2120 -25 c0 -21 -8 -105 -17 -188 l-17 -150 -108 -3 c-80 -2 -108 1 -112 10
-4 12 -35 328 -35 357 0 8 44 11 145 11 l145 0 -1 -37z m28955 18 c7 -11 -30
-356 -39 -371 -8 -13 -202 -13 -210 0 -8 12 -34 273 -35 338 l0 42 139 0 c77
0 142 -4 145 -9z m-2114 -23 c-1 -41 -40 -359 -45 -368 -8 -14 -202 -13 -210
1 -8 11 -34 278 -35 342 l0 37 145 0 c109 0 145 -3 145 -12z m-26096 -86 c21
-40 25 -57 17 -65 -15 -15 -14 -60 1 -75 7 -7 22 -12 35 -12 20 0 23 -5 23
-35 0 -19 -4 -35 -9 -35 -13 0 -82 85 -119 145 -38 63 -48 100 -31 121 23 28
52 12 83 -44z m436 43 c7 -9 10 -25 5 -42 -10 -40 -67 -130 -119 -188 l-45
-50 -1 43 c0 37 3 42 23 42 13 0 28 5 35 12 15 15 16 60 1 75 -10 10 15 76 43
111 14 16 43 15 58 -3z m26372 -32 c9 -10 25 -37 37 -60 18 -36 19 -42 5 -54
-31 -25 -11 -68 39 -83 12 -4 17 -16 17 -43 l-1 -38 -40 45 c-48 54 -93 122
-114 173 -14 35 -14 38 5 57 25 25 33 25 52 3z m463 -3 c17 -19 17 -22 -13
-82 -32 -66 -117 -178 -140 -186 -10 -3 -12 6 -10 34 3 33 7 40 28 42 48 7 64
40 38 81 -14 23 2 67 38 106 28 30 36 31 59 5z m-26919 -394 c-1 -51 28 -91
74 -101 31 -7 100 17 100 34 0 17 32 13 46 -6 49 -66 -48 -162 -139 -139 -58
14 -117 94 -117 156 0 28 24 100 33 100 2 0 3 -20 3 -44z m26494 -16 c26 -51
25 -97 -3 -151 -40 -74 -116 -101 -185 -65 -56 29 -76 104 -36 137 11 9 20 5
45 -15 35 -30 92 -35 126 -11 28 20 44 76 33 115 -12 41 -4 38 20 -10z m342
-15 c-4 -39 0 -49 26 -75 40 -40 96 -42 136 -5 35 33 43 32 63 -10 13 -27 14
-40 5 -59 -24 -52 -98 -81 -158 -60 -70 24 -123 117 -104 183 7 27 28 71 33
71 1 0 1 -20 -1 -45z m-20134 -3258 l2 -297 -352 2 -353 3 -56 75 c-180 240
-368 504 -363 511 3 5 252 8 562 7 l557 -3 3 -298z m5427 3 l0 -295 -1422 -3
-1423 -2 0 293 c0 162 3 297 7 300 3 4 644 6 1422 5 l1416 -3 0 -295z m5403
-2 l2 -298 -1405 0 -1405 0 0 293 c0 162 3 297 7 300 3 4 635 6 1402 5 l1396
-3 3 -297z m3636 294 c2 -4 -88 -139 -201 -300 l-205 -292 -327 2 -326 3 -3
285 c-1 157 0 290 3 297 3 10 116 13 529 13 289 0 527 -3 530 -8z m4538 -997
c-2 -11 -7 -663 -12 -1450 -8 -1337 -14 -1619 -40 -2065 -13 -204 -39 -513
-45 -519 -2 -2 -35 23 -72 56 -284 249 -735 569 -1178 835 -672 403 -1343 738
-2565 1283 -357 159 -371 164 -585 220 -121 31 -515 137 -875 235 -1167 318
-1534 409 -2065 514 -670 131 -758 146 -1035 176 -157 17 -447 48 -645 70
-788 87 -1227 122 -2020 162 -343 18 -1937 18 -2290 0 -1268 -63 -2264 -168
-3430 -363 -1610 -268 -3024 -642 -4245 -1124 -559 -220 -974 -413 -1670 -776
-327 -171 -645 -372 -1065 -674 -121 -88 -377 -272 -570 -410 -192 -138 -365
-261 -382 -275 -18 -13 -35 -21 -38 -19 -6 7 -22 271 -35 599 -6 146 -13 879
-15 1630 -3 751 -9 1486 -15 1633 -5 148 -7 273 -4 278 3 5 5038 8 12452 7
12441 -3 12447 -3 12444 -23z m10595 1 c-8 -19 -297 -425 -457 -641 l-126
-170 -145 -23 c-1884 -304 -3809 -868 -5239 -1537 -897 -420 -1685 -909 -2375
-1474 -66 -54 -132 -97 -192 -127 -51 -24 -95 -44 -98 -44 -3 0 -4 903 -3
2008 l3 2007 60 6 c33 3 1976 6 4319 7 3700 2 4257 0 4253 -12z m-37452 -8 c3
-7 4 -914 3 -2016 l-3 -2002 -114 76 c-62 42 -188 135 -280 208 -944 754
-2031 1344 -3391 1844 -1250 459 -2555 802 -3938 1037 -223 37 -257 45 -277
66 -53 55 -565 768 -565 788 0 17 8559 16 8565 -1z m-11784 -609 c159 -140
450 -437 585 -599 460 -550 773 -1104 990 -1755 80 -241 147 -495 193 -735 42
-221 44 -240 32 -240 -25 0 -280 218 -437 375 -358 356 -638 745 -900 1250
-295 569 -484 1119 -558 1630 -9 61 -19 122 -21 138 -2 15 -1 27 3 27 5 0 55
-41 113 -91z m52713 43 c-77 -560 -232 -1047 -519 -1627 -357 -724 -771 -1257
-1312 -1688 -40 -31 -77 -57 -83 -57 -7 0 -9 12 -5 33 37 213 63 344 105 512
207 838 587 1572 1156 2235 185 214 633 648 655 634 4 -2 5 -21 3 -42z
m-24799 -227 c355 -15 904 -56 1350 -100 451 -46 1149 -136 1193 -155 l23 -10
-3 -1187 -3 -1188 -27 -96 c-31 -116 -79 -212 -150 -306 -29 -39 -186 -209
-349 -379 -415 -435 -566 -595 -1320 -1405 -403 -432 -723 -767 -808 -845 -78
-71 -146 -130 -151 -132 -12 -4 -14 5800 -3 5812 4 4 30 5 58 2 27 -3 113 -8
190 -11z m-2850 -2810 c0 -1545 -4 -2854 -8 -2908 -7 -75 -12 -97 -23 -95 -26
6 -950 926 -1243 1238 -485 516 -1187 1285 -1375 1506 -100 117 -164 241 -186
355 -13 70 -14 2436 0 2444 25 15 794 115 1230 159 530 54 1381 116 1545 112
l60 -1 0 -2810z m-20764 2395 c955 -177 1826 -393 2734 -680 1708 -540 2996
-1182 4046 -2018 265 -210 330 -270 366 -338 42 -78 65 -162 64 -232 0 -63
-46 -323 -116 -657 -25 -121 -71 -339 -102 -485 -90 -430 -86 -606 18 -724 53
-59 106 -90 205 -118 78 -22 86 -22 907 -26 913 -3 1450 8 1562 32 162 36 299
140 345 263 30 81 41 197 30 311 -17 164 -90 464 -197 807 -88 286 -103 345
-110 430 -7 97 11 177 63 275 47 91 111 160 251 272 1099 881 2415 1564 4123
2140 285 96 642 208 662 208 8 0 98 -105 199 -232 1950 -2462 4202 -4879 6703
-7193 137 -126 255 -234 263 -239 10 -5 23 0 41 16 15 14 128 116 252 229
1309 1188 2813 2684 4020 3999 962 1049 2093 2374 2795 3278 61 77 115 141
122 142 7 0 167 -51 355 -114 1802 -598 3042 -1247 4038 -2115 267 -232 337
-312 371 -422 24 -77 24 -121 -2 -239 -92 -429 -178 -862 -235 -1190 -58 -331
-42 -447 77 -554 88 -79 125 -87 424 -98 296 -11 1696 -3 2005 12 288 13 371
40 477 153 85 91 105 147 111 313 4 116 1 148 -23 260 -36 176 -83 360 -170
674 -128 463 -129 463 -129 585 -2 200 21 226 534 620 685 525 1555 1019 2528
1437 1036 444 2290 822 3682 1112 328 68 761 148 768 142 9 -10 -10 -36 -235
-316 -1535 -1918 -3237 -3563 -5183 -5012 -2035 -1515 -4244 -2738 -6585
-3646 -2775 -1076 -5689 -1698 -8685 -1852 -937 -48 -2029 -46 -2980 5 -4577
248 -8987 1601 -12900 3960 -2732 1647 -5168 3749 -7195 6210 -220 266 -514
637 -515 648 0 9 -22 12 221 -33z m-1720 -1852 c638 -762 1039 -1649 1208
-2678 54 -329 97 -780 74 -780 -6 0 -91 27 -189 61 -777 266 -1446 645 -2004
1136 -164 144 -418 407 -551 569 -185 226 -375 489 -360 498 5 4 61 -3 125
-14 427 -73 859 -239 1344 -517 109 -63 435 -276 555 -363 l57 -42 -19 49
c-55 141 -144 394 -180 513 -156 519 -239 1151 -202 1544 13 135 18 159 32
151 4 -3 54 -60 110 -127z m47578 7 c30 -292 4 -635 -80 -1087 -57 -305 -160
-650 -298 -996 -24 -60 -26 -60 74 13 442 325 1015 625 1440 753 212 65 530
131 547 114 8 -8 -167 -257 -286 -406 -651 -817 -1548 -1429 -2633 -1796 -97
-33 -180 -60 -184 -60 -13 0 -11 75 6 261 104 1116 428 2033 1010 2854 155
218 372 482 385 468 4 -4 13 -57 19 -118z m-45583 -2553 c244 -177 342 -261
528 -453 185 -190 290 -314 386 -455 38 -55 103 -143 146 -195 267 -326 645
-1036 794 -1489 37 -113 79 -233 94 -267 31 -73 36 -162 10 -184 -13 -11 -26
-10 -79 4 -35 9 -87 17 -117 17 -81 0 -385 37 -543 65 -314 58 -554 129 -960
285 -317 122 -475 192 -679 302 -386 206 -629 367 -840 554 -48 44 -119 104
-157 135 -71 59 -119 110 -119 127 0 16 217 25 400 18 298 -12 585 -52 870
-122 167 -41 540 -164 780 -257 91 -36 166 -63 168 -62 2 2 -37 63 -86 137
-351 525 -582 1024 -718 1555 -30 117 -84 384 -84 415 0 17 20 5 206 -130z
m43654 129 c0 -24 -54 -297 -76 -386 -135 -541 -362 -1038 -716 -1568 -55 -82
-98 -150 -96 -152 2 -1 77 26 168 62 637 248 1112 357 1650 379 197 8 400 -2
400 -20 0 -16 -53 -73 -115 -121 -27 -22 -86 -73 -130 -114 -177 -162 -425
-333 -740 -508 -304 -170 -413 -220 -810 -373 -402 -155 -644 -227 -956 -284
-153 -28 -467 -66 -547 -66 -30 0 -79 -7 -109 -16 -80 -23 -103 -11 -103 56 0
30 10 77 26 117 15 38 57 160 94 273 149 451 537 1179 793 1487 40 49 105 135
144 193 39 58 109 150 155 205 106 127 431 455 523 527 103 81 429 318 437
318 5 0 8 -4 8 -9z m-40935 -2254 c285 -190 493 -363 750 -621 254 -255 408
-443 612 -751 181 -272 478 -784 554 -955 49 -109 179 -450 179 -468 0 -6 -7
-18 -16 -26 -32 -33 -422 -13 -783 40 -857 125 -1589 397 -2256 840 -170 112
-466 346 -454 359 3 3 73 12 155 21 204 22 635 14 849 -15 346 -47 748 -146
1084 -268 51 -18 95 -32 97 -31 1 2 -18 30 -43 63 -83 111 -239 339 -325 475
-282 448 -466 863 -578 1304 -21 83 -36 154 -33 158 5 9 36 -10 208 -125z
m38209 60 c-135 -589 -402 -1142 -858 -1776 -63 -89 -114 -161 -111 -161 2 0
43 14 92 31 354 126 749 224 1088 270 190 26 623 37 805 20 156 -14 200 -21
200 -31 0 -13 -305 -255 -415 -329 -539 -365 -1151 -629 -1790 -771 -411 -92
-856 -150 -1155 -150 -101 0 -119 3 -133 18 -21 23 -18 33 73 272 86 227 119
295 266 552 383 670 603 979 956 1343 146 150 329 314 505 452 129 100 474
334 484 327 4 -2 1 -32 -7 -67z m-2958 -1935 c-190 -557 -521 -1098 -1029
-1677 -58 -66 -105 -121 -104 -121 1 -1 88 18 192 42 219 50 475 95 690 120
213 25 693 26 895 1 152 -19 395 -63 419 -76 15 -9 -266 -200 -428 -291 -523
-294 -1206 -518 -1831 -600 -379 -49 -833 -70 -1133 -52 -178 11 -207 20 -207
64 0 40 214 452 305 587 126 188 358 511 479 666 356 458 737 812 1205 1119
206 135 555 331 572 320 4 -2 -7 -48 -25 -102z m-32377 37 c571 -298 1089
-712 1489 -1189 187 -223 572 -752 694 -953 64 -105 238 -460 238 -485 0 -10
-9 -27 -20 -37 -48 -44 -697 -43 -1110 0 -749 80 -1442 291 -2035 622 -147 82
-447 286 -433 294 22 12 271 57 418 76 101 13 213 17 440 17 324 0 446 -9 753
-60 138 -22 531 -105 574 -121 21 -8 18 -3 -93 122 -463 522 -796 1052 -994
1580 -58 156 -68 195 -50 195 7 0 65 -27 129 -61z m5442 -1605 c440 -183 881
-350 1369 -520 223 -77 324 -117 322 -126 -3 -13 -234 -584 -271 -670 l-20
-47 -73 25 c-40 13 -76 28 -81 33 -4 4 4 66 19 137 33 160 39 324 12 350 -15
15 -328 134 -353 134 -5 0 -250 -658 -543 -1462 -381 -1042 -532 -1468 -527
-1485 9 -36 79 -108 156 -159 38 -25 69 -47 69 -49 0 -11 -53 -151 -60 -159
-12 -12 -1093 386 -1123 414 -5 4 7 45 26 91 26 66 38 84 53 83 10 -1 62 -7
114 -15 103 -13 157 -8 189 19 13 11 215 524 576 1460 305 793 555 1446 555
1450 0 9 -337 143 -358 142 -45 0 -120 -92 -222 -273 l-72 -126 -50 20 c-56
22 -108 48 -108 53 0 5 228 678 241 714 5 12 12 22 17 22 4 0 69 -25 143 -56z
m21165 -661 c490 -665 1129 -1495 1677 -2181 229 -287 306 -377 332 -388 42
-17 124 -17 230 0 44 8 83 11 87 7 14 -13 69 -154 65 -165 -5 -14 -311 -140
-692 -287 -126 -49 -230 -89 -232 -89 -3 0 -63 159 -63 168 0 4 15 16 33 27
66 38 144 106 165 144 12 21 22 41 22 44 0 4 -39 55 -87 114 -47 59 -87 109
-88 111 -1 1 -146 -52 -321 -117 -175 -66 -427 -158 -559 -204 l-240 -84 3
-109 c5 -206 6 -207 195 -203 l122 3 27 -75 c15 -41 27 -79 27 -85 1 -13 -84
-44 -449 -167 -260 -88 -699 -227 -716 -227 -13 0 -68 165 -60 179 3 4 34 25
69 45 91 54 163 119 177 162 28 83 -26 2163 -85 3294 -9 177 -11 278 -5 284 9
9 143 63 162 65 3 1 95 -119 204 -266z m-17285 -613 c151 -38 401 -99 556
-134 316 -73 452 -115 585 -181 416 -207 562 -571 449 -1120 -23 -110 -76
-254 -122 -330 -46 -78 -138 -176 -214 -231 -64 -45 -206 -117 -258 -129 -15
-4 -27 -11 -25 -15 2 -4 37 -38 78 -76 108 -99 165 -168 209 -256 96 -188 95
-329 -3 -844 -39 -208 -66 -377 -66 -415 0 -68 22 -131 57 -161 27 -24 98 -48
144 -48 44 0 44 1 28 -86 -19 -107 2 -97 -188 -91 -185 5 -245 17 -357 72
-103 50 -166 111 -211 203 -35 71 -38 82 -41 181 -3 99 1 128 64 431 63 303
68 334 68 455 1 205 -44 332 -162 456 -69 74 -119 108 -203 140 -61 24 -350
92 -357 84 -3 -2 -76 -309 -163 -681 -148 -632 -158 -678 -144 -704 21 -40 67
-76 159 -122 45 -22 82 -42 84 -43 8 -8 -33 -168 -45 -172 -24 -9 -1134 257
-1157 278 -8 7 18 138 34 168 6 12 30 14 113 12 111 -3 172 8 206 37 16 14 92
301 391 1484 263 1040 369 1475 364 1494 -10 38 -81 103 -158 144 -44 23 -66
41 -66 53 0 39 54 217 65 217 7 0 136 -31 286 -70z m13893 -165 c10 -42 15
-82 12 -90 -3 -8 -28 -26 -57 -40 -66 -34 -145 -108 -158 -148 -9 -28 46 -277
389 -1777 219 -960 396 -1747 394 -1750 -7 -6 -566 558 -804 810 -405 429
-869 946 -1212 1349 -21 25 -39 43 -41 40 -6 -6 351 -2022 361 -2039 18 -32
96 -60 203 -71 l106 -12 15 -84 c8 -46 11 -86 7 -89 -24 -15 -922 -165 -931
-156 -4 4 -14 47 -21 95 -13 81 -13 89 2 94 181 65 261 119 261 177 0 17 -112
705 -249 1528 -178 1074 -253 1504 -265 1523 -24 37 -106 71 -203 85 l-81 12
-12 85 c-7 46 -11 85 -9 87 6 3 522 87 538 86 7 0 23 -12 35 -27 89 -116 452
-553 628 -758 323 -376 914 -1034 937 -1043 4 -1 -93 458 -215 1020 -123 563
-222 1027 -221 1032 3 8 515 132 558 135 11 1 20 -19 33 -74z m-9612 -580
c209 -21 727 -65 765 -65 14 0 16 -98 4 -154 -6 -28 -11 -31 -71 -42 -85 -16
-173 -49 -196 -75 -16 -18 -31 -188 -142 -1570 l-125 -1551 20 -26 c28 -37 83
-67 187 -99 l88 -28 -6 -89 c-3 -49 -7 -91 -9 -93 -5 -4 -487 34 -782 63 -143
14 -290 28 -327 31 -36 3 -72 9 -79 13 -9 6 -10 28 -3 91 l9 83 35 7 c19 4 67
13 105 19 86 14 156 47 171 80 6 14 79 714 161 1555 144 1464 150 1531 134
1560 -20 35 -102 87 -175 111 -28 9 -55 20 -59 24 -5 4 -6 47 -2 94 7 81 9 86
30 86 13 0 133 -11 267 -25z m4165 -117 c5 -7 63 -168 127 -358 153 -446 323
-929 498 -1410 254 -699 568 -1528 594 -1567 26 -41 134 -80 271 -98 l52 -7 6
-66 c3 -37 8 -79 10 -94 4 -24 1 -28 -28 -32 -75 -13 -803 -66 -898 -66 l-56
0 -7 80 c-4 44 -5 84 -2 89 4 5 44 21 91 36 90 29 159 71 169 103 6 18 -75
245 -95 266 -5 6 -84 5 -201 -2 -177 -11 -393 -21 -810 -38 l-157 -6 -10 -32
c-6 -17 -22 -76 -35 -131 -23 -91 -24 -101 -10 -123 19 -29 85 -58 184 -81
l75 -18 7 -88 c5 -49 6 -90 4 -92 -8 -8 -573 -22 -894 -23 l-333 0 3 97 3 97
40 8 c81 16 197 63 231 92 33 29 41 47 110 281 258 861 628 2200 814 2945 22
91 45 182 51 202 l10 37 67 4 c37 2 77 4 88 5 12 1 26 -4 31 -10z"/>
<path d="M41216 67534 c-104 -25 -201 -79 -283 -157 -115 -109 -178 -211 -233
-375 -35 -105 -396 -1876 -410 -2013 -28 -270 68 -543 237 -671 162 -123 398
-165 577 -104 104 35 156 67 238 145 109 102 193 246 242 413 9 31 100 468
202 970 163 800 187 928 191 1036 9 196 -28 356 -112 488 -136 213 -410 326
-649 268z"/>
<path d="M34775 61525 c-198 -43 -362 -156 -468 -321 -115 -179 -161 -394
-161 -749 0 -233 16 -392 64 -627 32 -156 168 -667 181 -682 12 -13 167 19
190 40 28 26 24 91 -20 319 -89 454 -115 679 -116 995 0 271 6 307 70 446 107
233 286 370 521 399 65 8 214 -17 294 -49 33 -14 62 -21 65 -16 9 15 -156 173
-211 202 -28 15 -77 34 -109 43 -72 18 -217 18 -300 0z"/>
<path d="M34918 61251 c-82 -26 -142 -65 -209 -133 -134 -136 -179 -320 -179
-732 0 -318 39 -613 131 -981 23 -90 37 -127 57 -147 25 -27 29 -28 129 -28
59 0 103 4 103 10 0 5 -17 49 -39 97 -21 48 -41 102 -45 118 -17 82 -72 752
-82 997 -7 186 0 227 66 380 46 107 59 124 125 154 108 51 237 19 295 -72 49
-79 111 -232 131 -327 63 -297 15 -643 -152 -1118 -38 -108 -69 -203 -69 -212
0 -29 20 -29 84 1 61 29 66 33 109 114 263 481 352 1012 242 1444 -57 226
-204 388 -399 440 -74 20 -228 17 -298 -5z"/>
<path d="M35016 60926 c-62 -23 -63 -29 -13 -90 96 -119 156 -243 183 -384 35
-185 2 -388 -130 -797 -64 -198 -72 -245 -56 -306 13 -47 45 -99 61 -99 16 0
113 212 159 345 90 262 132 483 133 685 0 154 -20 270 -77 438 -42 125 -65
170 -98 195 -34 25 -112 31 -162 13z"/>
<path d="M32785 60119 c-293 -43 -572 -270 -724 -590 -87 -181 -117 -350 -108
-594 14 -361 70 -579 199 -777 138 -211 323 -351 543 -409 113 -30 299 -30
410 0 317 85 573 349 689 711 54 169 70 272 70 465 0 263 -46 465 -151 668
-199 385 -546 582 -928 526z m250 -123 c150 -40 269 -140 347 -291 85 -165
137 -359 159 -590 29 -312 -42 -739 -165 -983 -172 -341 -624 -398 -859 -107
-132 165 -213 412 -238 725 -37 487 67 919 272 1120 58 57 154 112 225 129 59
14 203 12 259 -3z"/>
<path d="M39190 60124 c-14 -2 -52 -9 -85 -15 -314 -56 -631 -378 -739 -750
-40 -140 -49 -232 -43 -438 13 -448 119 -729 360 -957 121 -115 227 -176 377
-216 107 -29 305 -28 415 1 287 76 543 324 663 644 41 110 67 210 81 312 14
99 14 352 0 451 -66 474 -364 856 -741 948 -67 17 -240 29 -288 20z m214 -129
c143 -37 265 -134 334 -263 103 -193 182 -551 182 -822 0 -216 -56 -526 -126
-692 -99 -237 -292 -378 -518 -378 -317 0 -531 260 -612 745 -26 151 -26 565
-1 705 37 215 119 417 214 534 59 73 153 139 236 165 77 25 209 27 291 6z"/>
<path d="M29815 60080 c-66 -4 -128 -10 -138 -15 -16 -7 -17 -9 -2 -25 9 -10
33 -20 54 -24 60 -9 175 -72 216 -117 45 -51 82 -127 96 -202 6 -37 9 -340 7
-874 -3 -810 -3 -818 -24 -864 -26 -57 -61 -82 -150 -110 -115 -35 -112 -34
-87 -47 78 -42 655 -32 640 11 -2 6 -32 17 -68 24 -99 20 -137 41 -162 87 -19
37 -22 65 -28 266 -9 277 -11 1326 -3 1358 4 13 10 22 15 20 4 -2 294 -412
644 -913 349 -500 641 -911 649 -913 8 -2 18 3 23 10 4 7 10 483 13 1058 5
978 6 1048 23 1085 35 78 79 109 183 128 69 13 81 26 36 41 -44 15 -488 13
-554 -2 -32 -8 -58 -17 -58 -22 0 -4 32 -16 70 -25 87 -21 129 -49 154 -99 27
-56 35 -254 35 -937 1 -648 2 -640 -66 -548 -23 30 -258 367 -523 749 -265
382 -507 725 -536 761 -109 134 -177 154 -459 139z"/>
<path d="M36122 60057 c-16 -19 -13 -20 73 -41 97 -24 146 -52 171 -102 20
-40 21 -59 26 -660 3 -341 3 -770 -1 -954 -6 -314 -7 -337 -27 -370 -25 -44
-78 -74 -158 -90 -75 -16 -91 -26 -74 -48 11 -13 77 -14 518 -9 518 6 620 13
749 48 327 89 575 389 662 802 29 132 31 400 5 552 -51 302 -140 493 -303 645
-88 83 -173 133 -291 170 -160 52 -281 61 -837 67 -439 4 -502 3 -513 -10z
m1024 -127 c229 -58 417 -223 512 -452 154 -370 149 -792 -14 -1137 -103 -218
-239 -345 -449 -418 -73 -25 -93 -27 -225 -28 -178 0 -249 17 -280 68 -19 31
-20 56 -20 955 0 999 -2 964 53 994 74 41 295 50 423 18z"/>
<path d="M35260 59154 c-93 -18 -190 -26 -380 -34 -140 -5 -278 -15 -307 -20
-65 -14 -99 -41 -113 -88 -14 -53 -13 -122 3 -122 6 0 91 11 187 24 96 14 265
32 375 41 286 23 349 37 375 84 14 27 13 104 -2 123 -12 13 -26 12 -138 -8z"/>
<path d="M35345 58959 c-109 -30 -232 -47 -465 -64 -286 -21 -337 -30 -374
-67 -27 -27 -28 -33 -23 -85 3 -31 10 -60 15 -65 5 -5 61 0 133 12 68 11 232
27 364 35 364 24 414 35 441 101 20 47 15 148 -6 151 -8 1 -46 -7 -85 -18z"/>
<path d="M35398 58696 c-42 -13 -84 -28 -92 -36 -24 -19 -20 -95 14 -261 86
-425 120 -684 127 -974 4 -187 2 -247 -11 -324 -43 -245 -179 -441 -371 -533
-143 -68 -251 -76 -457 -33 -38 8 -74 15 -79 15 -21 0 -6 -25 52 -85 106 -110
228 -159 394 -158 267 3 510 150 635 384 188 353 178 1020 -26 1726 -44 152
-89 282 -102 295 -4 3 -42 -4 -84 -16z"/>
<path d="M35000 58623 c-47 -8 -49 -10 -41 -40 70 -234 85 -299 106 -448 39
-274 48 -418 42 -664 -9 -403 -51 -542 -182 -607 -49 -23 -64 -26 -125 -22
-153 11 -230 107 -306 380 -21 76 -27 123 -31 253 -8 241 16 370 166 879 39
132 71 244 71 249 0 5 -22 7 -51 5 -86 -9 -105 -37 -199 -288 -201 -537 -236
-687 -227 -968 5 -188 32 -305 102 -449 119 -245 340 -361 596 -313 180 34
347 202 398 401 63 246 50 758 -29 1174 -34 179 -81 378 -96 407 -22 43 -52
58 -114 57 -30 -1 -66 -4 -80 -6z"/>
<path d="M34806 58578 c-24 -34 -104 -228 -147 -355 -110 -327 -154 -675 -114
-906 29 -165 104 -326 177 -380 34 -25 126 -27 181 -3 l38 15 -56 68 c-217
262 -253 647 -101 1083 24 69 60 163 79 210 51 118 47 209 -10 272 -21 23 -29
23 -47 -4z"/>
<path d="M22005 47495 c-333 -62 -525 -299 -525 -650 0 -308 159 -547 431
-646 419 -153 878 100 965 530 27 139 10 264 -57 410 -32 68 -54 98 -121 166
-67 66 -100 90 -170 124 -152 74 -349 99 -523 66z m394 -401 c58 -31 120 -95
146 -151 22 -45 22 -143 1 -201 -26 -72 -132 -212 -161 -212 -5 0 -52 113
-104 250 l-93 249 -32 -13 c-86 -37 -85 -36 -90 -90 -3 -28 -10 -136 -16 -241
-6 -104 -14 -192 -16 -195 -9 -9 -96 44 -145 87 -26 24 -60 68 -75 98 -23 48
-26 64 -22 127 11 207 193 334 464 324 77 -3 99 -7 143 -32z"/>
<path d="M43400 48224 c-243 -21 -413 -54 -592 -114 -438 -146 -794 -430
-1030 -820 -235 -389 -353 -840 -318 -1220 39 -433 225 -842 564 -1239 39 -46
86 -101 105 -123 19 -22 30 -43 25 -48 -5 -5 -55 -27 -112 -49 -343 -137 -723
-374 -1032 -647 -586 -516 -950 -1179 -1045 -1899 -34 -264 -29 -539 16 -850
150 -1037 741 -1860 1684 -2346 316 -164 597 -265 1021 -369 155 -38 308 -79
339 -91 72 -27 148 -98 165 -154 22 -70 24 -393 5 -566 -9 -85 -19 -156 -21
-158 -3 -3 -2216 427 -2240 436 -22 8 -126 -280 -107 -297 10 -10 595 -192
851 -265 827 -236 1463 -330 2067 -304 222 9 324 20 532 54 619 103 1142 337
1558 696 408 352 704 805 904 1384 310 897 212 1764 -285 2510 -118 178 -236
318 -433 516 -279 278 -570 529 -1251 1079 -488 394 -727 597 -773 655 -23 30
-80 115 -125 189 l-84 136 52 65 c28 36 59 65 68 65 10 0 285 -58 612 -129
327 -71 597 -127 599 -125 8 7 -64 122 -116 187 -148 181 -323 267 -726 357
-192 42 -342 88 -384 115 l-23 16 2 397 3 397 613 3 612 2 0 155 0 155 -955 0
-955 0 0 -585 0 -585 -27 0 c-16 1 -85 5 -154 9 -145 10 -157 15 -279 110
-352 274 -599 648 -685 1041 -26 118 -31 394 -10 522 67 404 318 769 700 1021
188 124 385 205 614 255 117 25 143 27 366 26 223 0 249 -2 370 -27 325 -69
608 -204 868 -415 88 -71 297 -188 321 -179 6 3 24 27 38 54 l27 50 -58 89
c-122 189 -292 368 -472 497 -243 174 -594 304 -939 347 -92 11 -397 20 -470
14z m-685 -4084 c229 -73 400 -223 467 -411 l22 -64 4 -2377 4 -2378 -34 0
c-55 0 -232 28 -356 56 -690 154 -1346 595 -1770 1190 -212 298 -357 608 -442
945 -55 217 -64 294 -64 549 0 263 15 379 79 615 173 632 633 1240 1238 1639
204 134 373 225 467 251 83 23 293 14 385 -15z m1300 -951 c22 -23 227 -220
455 -438 810 -773 1144 -1133 1361 -1463 380 -582 460 -1299 220 -1973 -119
-332 -303 -624 -561 -889 -300 -308 -660 -529 -1085 -666 -119 -38 -524 -132
-536 -124 -5 3 -9 183 -9 399 l0 395 23 15 c49 32 190 75 412 125 127 29 262
64 300 77 185 66 327 167 419 297 46 64 90 145 83 152 -2 2 -271 -52 -598
-121 -326 -69 -602 -125 -611 -125 -17 0 -18 65 -18 1295 l0 1295 359 0 c275
0 361 3 369 13 20 24 44 142 40 194 -5 60 -25 88 -78 111 -29 13 -87 15 -362
13 l-328 -2 0 693 1 693 47 38 c26 20 49 37 52 37 3 0 24 -19 45 -41z"/>
<path d="M45711 18935 c-248 -44 -469 -161 -657 -349 -246 -246 -364 -531
-364 -880 0 -366 129 -681 379 -926 171 -167 376 -275 621 -327 118 -25 382
-24 498 1 506 109 900 512 987 1010 20 115 20 337 0 452 -73 414 -369 781
-763 943 -146 61 -260 83 -447 87 -120 2 -195 -1 -254 -11z m349 -140 c319
-30 629 -215 804 -479 225 -337 252 -742 76 -1101 -164 -332 -483 -573 -845
-636 -107 -18 -321 -6 -430 24 -457 128 -789 526 -834 1000 -27 279 63 567
247 799 170 214 458 370 732 397 83 9 120 8 250 -4z"/>
<path d="M38612 18920 c-56 -34 -77 -115 -48 -184 40 -95 174 -112 245 -31 27
32 31 43 31 97 0 57 -2 63 -39 99 -36 36 -42 39 -97 39 -42 0 -69 -6 -92 -20z
m144 -19 c28 -17 64 -73 64 -100 0 -27 -43 -92 -70 -106 -37 -19 -63 -19 -100
0 -88 46 -94 146 -11 202 41 28 76 29 117 4z"/>
<path d="M43305 18914 c-38 -8 -112 -35 -164 -60 -162 -79 -300 -238 -352
-405 -62 -198 -38 -426 63 -597 51 -88 199 -230 285 -275 198 -103 452 -104
657 -2 194 97 350 293 392 495 19 89 14 253 -10 345 -65 246 -272 443 -523
499 -89 20 -253 20 -348 0z m310 -109 c208 -53 378 -217 439 -424 60 -203 -1
-418 -164 -581 -168 -168 -377 -223 -582 -153 -259 89 -429 315 -429 568 0
270 195 520 461 589 73 19 202 20 275 1z"/>
<path d="M39555 18892 c-135 -64 -166 -242 -60 -348 102 -101 280 -72 345 57
46 89 15 216 -67 273 -55 38 -157 47 -218 18z m175 -41 c64 -33 107 -121 89
-185 -22 -79 -101 -146 -172 -146 -41 0 -118 44 -145 84 -63 93 -17 221 94
262 44 16 83 12 134 -15z"/>
<path d="M40574 18892 c-134 -46 -217 -184 -200 -332 12 -107 77 -198 178
-252 63 -33 202 -33 271 1 61 30 128 97 158 158 34 70 34 197 -1 268 -71 145
-245 212 -406 157z m216 -53 c209 -94 212 -370 6 -477 -161 -83 -365 50 -366
239 0 179 198 311 360 238z"/>
<path d="M41729 18882 c-122 -32 -225 -120 -282 -240 -31 -64 -32 -72 -32
-192 0 -119 1 -128 31 -190 139 -294 509 -357 740 -126 105 106 148 234 127
380 -40 279 -298 442 -584 368z m232 -68 c112 -33 190 -101 243 -214 27 -57
31 -76 31 -150 0 -75 -4 -92 -32 -151 -39 -80 -120 -159 -200 -197 -48 -22
-72 -27 -138 -27 -69 0 -89 4 -147 32 -163 77 -258 243 -228 396 45 229 262
372 471 311z"/>
<path d="M23760 18854 c-570 -73 -1014 -495 -1106 -1053 -24 -146 -15 -368 19
-501 67 -257 177 -445 368 -624 237 -223 524 -336 854 -336 354 0 658 129 900
381 229 238 345 533 347 879 1 160 -13 261 -54 390 -58 182 -149 337 -281 476
-179 189 -386 308 -637 365 -83 19 -331 33 -410 23z m333 -159 c442 -77 795
-421 893 -870 25 -117 24 -332 -4 -451 -111 -488 -500 -840 -986 -895 -429
-48 -892 219 -1098 633 -84 170 -118 309 -118 489 0 366 179 711 471 909 128
88 332 167 484 189 97 14 266 12 358 -4z"/>
<path d="M31061 18833 c-52 -26 -73 -67 -68 -135 2 -44 9 -64 28 -84 39 -42
77 -57 132 -51 39 3 56 11 85 40 31 32 36 43 39 94 3 45 0 65 -15 89 -38 59
-131 81 -201 47z m112 -17 c70 -29 96 -90 66 -155 -22 -50 -86 -86 -126 -70
-50 19 -65 32 -83 71 -28 63 -2 124 65 154 38 17 39 17 78 0z"/>
<path d="M26218 18830 c-146 -25 -267 -89 -379 -200 -131 -130 -192 -269 -206
-465 -22 -334 205 -642 544 -737 100 -28 267 -30 363 -5 243 64 448 270 516
517 24 89 25 281 1 370 -33 123 -91 224 -180 313 -91 91 -161 137 -264 172
-121 42 -272 55 -395 35z m305 -129 c167 -58 293 -166 364 -311 52 -105 78
-226 68 -313 -23 -209 -155 -393 -353 -492 -170 -85 -325 -84 -502 3 -56 27
-96 57 -155 117 -126 126 -188 264 -188 420 1 340 286 617 618 601 54 -3 113
-13 148 -25z"/>
<path d="M29050 18806 c-81 -21 -156 -81 -194 -155 -39 -75 -38 -205 1 -289
27 -57 105 -128 168 -151 207 -77 417 53 433 268 7 109 -16 173 -91 247 -51
49 -73 63 -123 77 -70 20 -130 21 -194 3z m207 -70 c75 -38 120 -97 143 -189
26 -99 -39 -218 -150 -275 -58 -30 -71 -33 -123 -29 -142 13 -260 153 -244
289 12 100 94 198 191 228 48 15 128 4 183 -24z"/>
<path d="M30145 18816 c-5 -2 -22 -7 -37 -10 -15 -4 -44 -21 -64 -39 -99 -86
-98 -243 2 -325 142 -118 353 -21 354 161 0 80 -45 158 -112 193 -26 14 -124
27 -143 20z m108 -52 c45 -23 66 -44 88 -86 43 -84 7 -183 -83 -229 -117 -60
-258 40 -246 173 12 116 141 192 241 142z"/>
<path d="M27880 18800 c-167 -30 -301 -147 -343 -300 -36 -128 -29 -234 21
-340 32 -68 130 -169 200 -204 145 -74 313 -73 440 1 61 36 141 119 175 182
59 107 69 254 27 377 -70 203 -292 324 -520 284z m236 -99 c89 -41 147 -99
192 -189 33 -69 37 -84 37 -156 0 -70 -4 -90 -32 -148 -39 -82 -101 -146 -185
-190 -58 -30 -70 -33 -158 -33 -87 0 -100 3 -155 32 -107 56 -179 145 -211
262 -15 53 -16 73 -7 128 44 255 296 398 519 294z"/>
<path d="M50586 18939 c-460 -67 -862 -410 -1009 -860 -56 -171 -73 -423 -42
-605 60 -342 258 -642 555 -839 156 -104 305 -161 495 -190 683 -103 1306 350
1420 1034 21 122 16 409 -8 503 -46 177 -111 320 -204 450 -70 98 -226 249
-319 310 -151 101 -341 174 -508 197 -89 13 -294 12 -380 0z m382 -150 c162
-25 361 -114 499 -223 183 -145 324 -363 382 -591 70 -273 41 -524 -90 -786
-161 -323 -471 -553 -822 -609 -120 -20 -320 -8 -432 24 -194 57 -369 160
-510 301 -328 328 -425 788 -255 1211 190 475 702 755 1228 673z"/>
<path d="M53081 18919 c-172 -33 -317 -123 -422 -258 -243 -314 -181 -771 137
-1009 142 -106 278 -152 453 -152 128 0 197 16 311 72 70 34 101 58 180 137
78 78 104 112 138 181 59 120 76 192 76 330 0 137 -17 209 -76 330 -33 68 -58
102 -127 170 -147 146 -308 211 -521 209 -58 -1 -125 -5 -149 -10z m284 -114
c174 -44 328 -169 403 -326 49 -104 66 -172 66 -269 -1 -146 -65 -292 -179
-405 -248 -248 -586 -252 -831 -10 -121 119 -185 262 -187 415 -2 107 14 172
66 280 74 152 220 271 387 314 73 19 202 20 275 1z"/>
<path d="M55902 18891 c-68 -23 -143 -96 -173 -165 -26 -61 -30 -159 -10 -229
18 -62 96 -149 164 -183 66 -34 164 -42 239 -20 73 21 147 87 185 164 24 49
28 69 28 142 0 102 -21 156 -85 220 -59 59 -118 83 -215 87 -60 3 -93 -1 -133
-16z m214 -50 c137 -62 203 -219 145 -342 -46 -97 -143 -163 -241 -163 -133 0
-260 129 -260 264 0 177 199 312 356 241z"/>
<path d="M56987 18900 c-123 -37 -178 -207 -104 -319 87 -132 284 -130 367 4
27 43 37 130 20 179 -16 50 -66 105 -115 127 -42 19 -120 23 -168 9z m115 -30
c82 -23 144 -109 135 -187 -10 -94 -102 -172 -188 -160 -177 24 -216 258 -56
333 60 27 60 27 109 14z"/>
<path d="M54725 18887 c-76 -20 -149 -64 -210 -128 -67 -71 -101 -140 -117
-242 -22 -146 21 -276 128 -383 224 -225 591 -170 729 110 58 117 66 231 24
361 -35 110 -144 223 -256 265 -72 27 -224 36 -298 17z m268 -90 c158 -72 262
-260 228 -411 -32 -143 -136 -255 -280 -301 -162 -53 -349 44 -434 223 -28 58
-32 78 -32 147 0 68 5 90 31 145 52 111 118 169 239 213 71 25 173 19 248 -16z"/>
<path d="M18805 18934 c-443 -78 -823 -408 -963 -834 -81 -245 -81 -547 0
-799 61 -191 152 -343 292 -490 181 -188 385 -301 648 -357 115 -25 380 -26
496 -1 246 53 440 156 623 334 194 188 307 392 365 658 21 98 24 368 5 464
-37 187 -95 330 -196 482 -192 288 -495 484 -839 544 -110 19 -322 18 -431 -1z
m422 -150 c293 -52 567 -224 724 -456 135 -198 192 -389 192 -638 0 -136 -3
-167 -26 -253 -30 -112 -104 -274 -168 -368 -146 -216 -407 -400 -664 -469
-102 -28 -304 -38 -413 -20 -295 47 -573 222 -742 466 -128 185 -198 391 -207
609 -13 315 102 608 326 830 262 259 607 364 978 299z"/>
<path d="M16421 18919 c-277 -54 -500 -269 -556 -534 -18 -88 -19 -240 -1
-326 50 -233 235 -442 468 -527 67 -25 85 -27 223 -27 136 1 158 3 230 28 117
39 199 91 295 187 95 95 150 180 183 285 19 60 22 92 22 220 -1 138 -3 156
-29 230 -84 241 -289 420 -530 464 -69 13 -241 13 -305 0z m292 -115 c218 -56
390 -235 443 -459 21 -89 14 -216 -16 -302 -85 -243 -327 -426 -565 -426 -371
0 -678 379 -590 728 69 275 312 472 584 474 46 1 110 -6 144 -15z"/>
<path d="M12656 18895 c-46 -16 -89 -56 -111 -100 -19 -41 -20 -144 -2 -188
28 -65 121 -127 193 -127 49 0 121 31 155 67 61 64 76 117 58 202 -27 125
-162 193 -293 146z m165 -40 c68 -36 111 -127 90 -195 -22 -73 -102 -140 -168
-140 -70 1 -149 63 -173 136 -25 75 37 184 120 211 39 13 91 8 131 -12z"/>
<path d="M13669 18895 c-62 -20 -146 -96 -175 -160 -34 -72 -34 -199 1 -272
33 -71 102 -137 173 -163 115 -44 265 -9 346 80 66 73 81 114 81 220 0 79 -4
102 -23 137 -33 63 -75 106 -134 138 -45 24 -66 29 -138 32 -55 2 -101 -2
-131 -12z m230 -66 c74 -37 124 -103 142 -187 34 -163 -142 -340 -301 -302
-252 61 -297 375 -69 489 84 42 144 42 228 0z"/>
<path d="M14835 18887 c-203 -53 -336 -226 -335 -437 1 -129 42 -231 132 -322
233 -240 649 -139 758 183 19 54 21 79 17 159 -5 111 -29 181 -85 255 -48 63
-122 119 -192 146 -69 27 -222 35 -295 16z m278 -95 c77 -38 148 -111 185
-190 23 -49 27 -70 27 -152 0 -88 -3 -100 -33 -158 -44 -84 -108 -146 -190
-185 -58 -28 -78 -32 -147 -32 -69 0 -89 4 -147 32 -83 39 -154 108 -194 188
-26 54 -29 70 -29 155 0 83 4 102 27 150 97 199 317 282 501 192z"/>
<path d="M45713 6300 c3 -47 20 -260 36 -475 34 -434 71 -1006 71 -1090 0 -30
4 -55 8 -55 21 0 858 305 897 327 12 7 -17 50 -151 223 -209 270 -475 623
-696 923 l-171 232 6 -85z"/>
<path d="M28646 6179 c-14 -38 -315 -1344 -311 -1347 11 -12 300 -72 370 -78
191 -16 371 84 469 259 152 271 179 642 65 869 -41 80 -134 177 -209 217 -105
56 -373 112 -384 80z"/>
<path d="M36710 4576 c0 -18 -177 -796 -246 -1080 -131 -543 -137 -567 -132
-571 10 -10 929 34 941 45 4 4 -38 132 -94 286 -132 364 -195 544 -340 969
-110 320 -129 372 -129 351z"/>
</g>
</svg>
